<?xml version="1.0" encoding="UTF-8"?>
<svg version="1.1" xmlns="http://www.w3.org/2000/svg" width="1024" height="1024">
<path d="M0 0 C337.92 0 675.84 0 1024 0 C1024 337.92 1024 675.84 1024 1024 C686.08 1024 348.16 1024 0 1024 C0 686.08 0 348.16 0 0 Z " fill="#090A0A" transform="translate(0,0)"/>
<path d="M0 0 C0.99870117 0.00273422 0.99870117 0.00273422 2.01757812 0.00552368 C11.81223616 0.05074385 20.89764116 0.42279085 30.3125 3.3125 C31.4571875 3.6528125 32.601875 3.993125 33.78125 4.34375 C61.96653459 13.57256 84.81586592 33.44487333 98.23608398 59.78930664 C110.0824675 84.25317856 112.53989122 114.39464153 104.3125 140.3125 C103.99901611 141.33126221 103.99901611 141.33126221 103.67919922 142.37060547 C94.82991337 170.37677231 74.91859726 191.52664701 49.31982422 205.27294922 C44.44041367 207.7998928 39.57528375 209.74143062 34.3125 211.3125 C33.67812012 211.50569824 33.04374023 211.69889648 32.39013672 211.89794922 C3.74237673 220.25553578 -24.92548147 216.0457786 -50.96875 202.62109375 C-76.51315859 188.43341321 -94.10478518 164.69704517 -102.65625 137.078125 C-110.23500832 109.40417416 -107.49465114 80.27354814 -93.4375 55 C-77.98829915 28.35553608 -54.34077082 10.39975568 -24.6875 2.3125 C-16.47360753 0.15957888 -8.46215469 -0.03652957 0 0 Z " fill="#0A0A0A" transform="translate(218.6875,397.6875)"/>
<path d="M0 0 C0.99870117 0.00273422 0.99870117 0.00273422 2.01757812 0.00552368 C11.81223616 0.05074385 20.89764116 0.42279085 30.3125 3.3125 C31.4571875 3.6528125 32.601875 3.993125 33.78125 4.34375 C61.96653459 13.57256 84.81586592 33.44487333 98.23608398 59.78930664 C110.0824675 84.25317856 112.53989122 114.39464153 104.3125 140.3125 C103.99901611 141.33126221 103.99901611 141.33126221 103.67919922 142.37060547 C94.82991337 170.37677231 74.91859726 191.52664701 49.31982422 205.27294922 C44.44041367 207.7998928 39.57528375 209.74143062 34.3125 211.3125 C33.67812012 211.50569824 33.04374023 211.69889648 32.39013672 211.89794922 C3.74237673 220.25553578 -24.92548147 216.0457786 -50.96875 202.62109375 C-76.51315859 188.43341321 -94.10478518 164.69704517 -102.65625 137.078125 C-110.23500832 109.40417416 -107.49465114 80.27354814 -93.4375 55 C-77.98829915 28.35553608 -54.34077082 10.39975568 -24.6875 2.3125 C-16.47360753 0.15957888 -8.46215469 -0.03652957 0 0 Z M-28.6875 20.3125 C-29.89148438 20.74820312 -31.09546875 21.18390625 -32.3359375 21.6328125 C-54.44027507 30.40741939 -72.70202077 47.69299543 -82.6875 69.3125 C-92.68241912 93.82823708 -93.78519594 119.8336759 -83.48046875 144.4921875 C-78.71146972 155.07382437 -71.75378072 164.02257009 -63.6875 172.3125 C-62.81158203 173.26382813 -62.81158203 173.26382813 -61.91796875 174.234375 C-47.37823541 189.62538079 -25.26657446 198.64038673 -4.3046875 199.53515625 C19.92441958 200.17966699 42.18463563 194.15978016 60.6875 177.75 C62.23765136 176.27972761 63.78014285 174.80130882 65.3125 173.3125 C65.92480469 172.76207031 66.53710938 172.21164062 67.16796875 171.64453125 C81.66456576 158.20946994 91.36225696 137.09436794 92.47363281 117.46679688 C92.88276538 88.86557619 87.67459573 64.89821703 67.66992188 43.57836914 C51.15129678 26.71702223 29.47734333 16.38436862 5.72900391 16.02001953 C-6.39573458 15.95492666 -17.22339583 16.14608742 -28.6875 20.3125 Z " fill="#F9D62E" transform="translate(218.6875,397.6875)"/>
<path d="M0 0 C10.41632146 7.49534242 17.2790574 18.48338103 20 31 C21.25424218 47.17885911 20.1260926 60.81076438 10 74 C9.401875 74.8146875 8.80375 75.629375 8.1875 76.46875 C0.19419887 85.71814131 -10.87617509 90.28972107 -22.5625 92.75 C-38.54338746 93.91224636 -52.82325335 91.22378777 -65.60546875 80.89453125 C-76.16359889 70.90233104 -81.93895275 58.45995342 -82.47265625 43.91943359 C-82.63852833 28.86358006 -78.21178118 16.3022168 -67.75 5.25 C-49.2934089 -12.27756806 -21.10903489 -14.00662096 0 0 Z " fill="#F9D62D" transform="translate(575,412)"/>
<path d="M0 0 C6.93 0 13.86 0 21 0 C27.83591681 8.30075612 27.83591681 8.30075612 29.56640625 12.09375 C32.01277035 17.15449493 34.95955414 21.75881574 38.0625 26.4375 C38.97008798 27.85284157 39.87764287 29.26820435 40.78515625 30.68359375 C42.79181835 33.92202962 42.79181835 33.92202962 45 36 C45.3717334 35.4423999 45.7434668 34.8847998 46.12646484 34.31030273 C49.63549805 29.04675293 49.63549805 29.04675293 53.14453125 23.78320312 C53.74394531 22.88408203 54.34335938 21.98496094 54.9609375 21.05859375 C55.62722168 20.1162085 56.29350586 19.17382324 56.97998047 18.20288086 C58.55444847 15.70645281 59.58294773 13.66565501 60.64892578 10.97094727 C62.65509546 6.42285801 64.68064721 2.67423693 69 0 C78.06445642 -2.37260434 87.75552865 -1.48454463 97.0368042 -1.02996826 C100.52838526 -0.87535612 104.02159414 -0.80777721 107.515625 -0.73242188 C114.34816905 -0.57244616 121.17259247 -0.30912614 128 0 C128 6.93 128 13.86 128 21 C120.08 21.33 112.16 21.66 104 22 C104 45.76 104 69.52 104 94 C97.73 94 91.46 94 85 94 C85 70.24 85 46.48 85 22 C69.6310271 33.52672968 59.97980793 48.77338763 50.17211914 65.03564453 C47.2098453 69.89507735 47.2098453 69.89507735 45 71 C44.45214844 70.11183594 43.90429688 69.22367188 43.33984375 68.30859375 C37.34002105 58.62679768 31.16559873 49.06696614 24.91577148 39.54467773 C24.29259033 38.59407471 23.66940918 37.64347168 23.02734375 36.6640625 C22.46781006 35.81279785 21.90827637 34.9615332 21.33178711 34.08447266 C20 32 20 32 19 30 C18.67 51.12 18.34 72.24 18 94 C12.06 94 6.12 94 0 94 C0 62.98 0 31.96 0 0 Z " fill="#F8D52D" transform="translate(158,458)"/>
<path d="M0 0 C7.26 0 14.52 0 22 0 C28.05453093 6.68086171 28.05453093 6.68086171 29.56640625 10.08984375 C32.50161822 16.2240636 36.22455075 21.83582786 39.875 27.5625 C41.14554853 29.60402711 42.4138919 31.6469288 43.6796875 33.69140625 C45.54644503 36.70046896 47.43580464 39.67438129 49.4453125 42.58984375 C51 45 51 45 51 47 C51.66 47 52.32 47 53 47 C53.34224609 46.01773438 53.34224609 46.01773438 53.69140625 45.015625 C55.42280934 41.02564533 57.64904076 37.44207401 59.9375 33.75 C60.42041504 32.96584717 60.90333008 32.18169434 61.40087891 31.3737793 C64.83717891 25.81800146 68.33340722 20.30169398 71.875 14.8125 C72.31448975 14.1309082 72.75397949 13.44931641 73.20678711 12.74707031 C76.03134265 8.40160024 78.97836842 4.23028421 82 0 C88.93 0 95.86 0 103 0 C103 32.34 103 64.68 103 98 C96.4 98 89.8 98 83 98 C83 76.55 83 55.1 83 33 C78.38 40.26 73.76 47.52 69 55 C60.2432496 68.25788378 60.2432496 68.25788378 58.12353516 71.33691406 C57.21080531 72.6879605 56.36588202 74.08463075 55.54296875 75.4921875 C54 77 54 77 51.11328125 77.7109375 C48 77 48 77 45.60546875 73.9765625 C44.80753906 72.54054688 44.00960937 71.10453125 43.1875 69.625 C35.91603187 57.13864059 27.90739199 45.09365834 20 33 C19.67 54.12 19.34 75.24 19 97 C12.73 97 6.46 97 0 97 C0 64.99 0 32.98 0 0 Z " fill="#FAD62C" transform="translate(373,405)"/>
<path d="M0 0 C6.27 0 12.54 0 19 0 C25.56450879 7.05335519 25.56450879 7.05335519 27.41015625 10.4765625 C30.10250542 15.25300865 33.17646254 19.69437966 36.3125 24.1875 C37.40686659 25.79296465 38.49928669 27.39975769 39.58984375 29.0078125 C45.30475308 37.39987185 51.16512147 45.69118841 57 54 C59.31 57.3 61.62 60.6 64 64 C64.33 42.88 64.66 21.76 65 0 C71.27 0 77.54 0 84 0 C84 32.01 84 64.02 84 97 C64 97 64 97 59.58984375 93.625 C58.17993164 91.41455078 58.17993164 91.41455078 56.9375 89 C56.18424438 87.77192627 56.18424438 87.77192627 55.41577148 86.51904297 C54.38756809 84.84130291 53.38619126 83.14680995 52.41308594 81.43652344 C50.33389622 77.85146584 47.95197149 74.50718828 45.5625 71.125 C44.67242249 69.82562519 43.78444757 68.52480794 42.8984375 67.22265625 C38.96698675 61.47446141 34.95464491 55.7825766 30.94555664 50.08837891 C30.38989014 49.29737793 29.83422363 48.50637695 29.26171875 47.69140625 C28.77662842 47.00248291 28.29153809 46.31355957 27.79174805 45.60375977 C25.15061188 41.76567321 22.58436177 37.87654265 20 34 C19.67 54.79 19.34 75.58 19 97 C12.73 97 6.46 97 0 97 C0 64.99 0 32.98 0 0 Z " fill="#FBD72D" transform="translate(612,405)"/>
<path d="M0 0 C21.78 0 43.56 0 66 0 C66 5.94 66 11.88 66 18 C50.82 18 35.64 18 20 18 C20 24.93 20 31.86 20 39 C33.53 39 47.06 39 61 39 C61 44.94 61 50.88 61 57 C47.47 57 33.94 57 20 57 C20 64.59 20 72.18 20 80 C35.51 80 51.02 80 67 80 C67 85.94 67 91.88 67 98 C44.89 98 22.78 98 0 98 C0 65.66 0 33.32 0 0 Z " fill="#F7D42E" transform="translate(720,405)"/>
<path d="M0 0 C7.42572181 5.10584581 12.85779901 11.119016 15 20 C16.38289219 30.68789355 15.59035227 40.43177705 9.3046875 49.42578125 C4.03501303 55.94353652 -2.02866217 59.70745217 -10.125 61.8125 C-11.07375 61.874375 -12.0225 61.93625 -13 62 C-14.19625 62.12375 -15.3925 62.2475 -16.625 62.375 C-23.52600657 62.28210183 -30.8697886 58.86897156 -36.375 54.8125 C-44.1903175 46.43894554 -47.46516591 37.59918633 -47.24609375 26.24609375 C-46.57174691 17.35113782 -42.59605314 9.36767783 -36.11328125 3.20703125 C-25.18654075 -5.48713359 -12.44423056 -6.64410578 0 0 Z " fill="#0A0A0A" transform="translate(560,425)"/>
<path d="M0 0 C6.95156432 -1.56688923 14.22043184 -2.67480821 21 0 C27.18273827 5.67525787 30.77818609 13.6271856 34.48730469 21.03759766 C36.41311354 24.80902514 38.62534226 28.33300487 40.9375 31.875 C44 36.75159236 44 36.75159236 44 39 C44.66 39 45.32 39 46 39 C46.4029126 37.91344116 46.4029126 37.91344116 46.81396484 36.80493164 C47.98901374 34.02598212 49.34987471 31.65845716 50.9765625 29.12109375 C51.56002441 28.20473145 52.14348633 27.28836914 52.74462891 26.34423828 C54.01424725 24.38162129 55.29012747 22.42304298 56.57177734 20.46826172 C60.60051015 14.35600873 60.60051015 14.35600873 64 7.88671875 C65.74696527 4.3801899 66.81831124 2.30791154 70 0 C76.58179243 -1.36145856 83.37041472 -0.73872522 90 0 C90.495 0.99 90.495 0.99 91 2 C89.70218914 4.37828497 88.34932009 6.60811687 86.875 8.875 C86.42560059 9.57898926 85.97620117 10.28297852 85.51318359 11.00830078 C84.0175492 13.34462522 82.50943008 15.67256839 81 18 C79.95298253 19.62490821 78.90610932 21.24990938 77.859375 22.875 C77.32876465 23.69323242 76.7981543 24.51146484 76.25146484 25.35449219 C75.15293586 27.05686584 74.06494536 28.76607948 72.98681641 30.48144531 C70.40365068 34.54452586 67.84845777 38.2910487 64.5390625 41.796875 C51.07856199 56.93258207 54.54897116 79.00474704 55 98 C48.4 98 41.8 98 35 98 C35.04382813 95.2259375 35.08765625 92.451875 35.1328125 89.59375 C35.14123951 86.84958623 35.13243093 84.10596642 35.12207031 81.36181641 C35.12399422 79.48248072 35.14330154 77.60306666 35.18164062 75.72412109 C35.44118171 62.2207752 33.48713445 53.59411107 25.3135376 42.77069092 C23.31880281 40.08172428 21.57996516 37.26458133 19.8046875 34.42578125 C18.49516909 32.38777827 17.18527494 30.35001668 15.875 28.3125 C13.24741428 24.20998424 10.62321568 20.10531104 8 16 C7.50532227 15.22736816 7.01064453 14.45473633 6.50097656 13.65869141 C5.32645852 11.81873026 4.16087445 9.97358719 3 8.125 C2.401875 7.17882812 1.80375 6.23265625 1.1875 5.2578125 C0 3 0 3 0 0 Z " fill="#F7D42E" transform="translate(801,405)"/>
<path d="M0 0 C26.3 0 26.3 0 32.3125 4.875 C35.81398279 9.28427463 36.39106378 13.28447354 36.25390625 18.7890625 C35.65625102 23.99326035 32.93048571 27.7034636 29 31 C28.34 31 27.68 31 27 31 C27.33322266 31.5347998 27.66644531 32.06959961 28.00976562 32.62060547 C29.51112495 35.03590415 31.00563105 37.45537067 32.5 39.875 C33.02464844 40.71675781 33.54929687 41.55851563 34.08984375 42.42578125 C34.58613281 43.23144531 35.08242188 44.03710938 35.59375 44.8671875 C36.05458984 45.61081543 36.51542969 46.35444336 36.99023438 47.12060547 C38 49 38 49 38 51 C34.37 51 30.74 51 27 51 C26.45472656 49.85660156 25.90945313 48.71320312 25.34765625 47.53515625 C24.58769247 46.04337549 23.82587538 44.55253785 23.0625 43.0625 C22.70865234 42.30775391 22.35480469 41.55300781 21.99023438 40.77539062 C19.7853404 36.47177151 19.7853404 36.47177151 15.67529297 34.27294922 C12.90843112 33.91870347 12.90843112 33.91870347 9 34 C9 39.61 9 45.22 9 51 C6.03 51 3.06 51 0 51 C0 34.17 0 17.34 0 0 Z " fill="#F7DC32" transform="translate(732,543)"/>
<path d="M0 0 C24 0 24 0 30 3 C33.51678933 6.71216651 35.95620792 10.09999109 36.03515625 15.328125 C35.69361881 20.89268622 34.77752868 24.68282436 31 29 C29.68893627 29.70946045 28.35797031 30.38507005 27 31 C27.33322266 31.57032959 27.66644531 32.14065918 28.00976562 32.72827148 C29.50874624 35.29671712 31.00441398 37.86707636 32.5 40.4375 C33.02464844 41.33533203 33.54929687 42.23316406 34.08984375 43.15820312 C34.58613281 44.01220703 35.08242188 44.86621094 35.59375 45.74609375 C36.28500977 46.93223267 36.28500977 46.93223267 36.99023438 48.14233398 C38 50 38 50 38 51 C34.0155887 52.0054122 30.94096253 52.27828656 27 51 C23.20226929 47.10587348 18 39.48626054 18 34 C15.03 34 12.06 34 9 34 C9 39.61 9 45.22 9 51 C6.03 51 3.06 51 0 51 C0 34.17 0 17.34 0 0 Z " fill="#F5D732" transform="translate(423,543)"/>
<path d="M0 0 C9 0 9 0 11.05639648 1.52197266 C11.49024658 2.2288623 11.92409668 2.93575195 12.37109375 3.6640625 C12.87809814 4.45063232 13.38510254 5.23720215 13.9074707 6.04760742 C14.41238037 6.89814697 14.91729004 7.74868652 15.4375 8.625 C16.54281181 10.36420936 17.64959881 12.10248201 18.7578125 13.83984375 C19.29825195 14.70851074 19.83869141 15.57717773 20.39550781 16.47216797 C22.72813027 20.14714863 25.25366672 23.66813466 27.8125 27.1875 C29.194375 29.105625 30.57625 31.02375 32 33 C32.33 22.11 32.66 11.22 33 0 C35.97 0 38.94 0 42 0 C42 16.83 42 33.66 42 51 C33 51 33 51 29.8828125 48.0625 C28.93282522 46.72970204 28.01485381 45.37367624 27.125 44 C26.3829834 42.93458984 26.3829834 42.93458984 25.62597656 41.84765625 C24.58850587 40.35033012 23.56461472 38.84351423 22.55371094 37.328125 C20.53339235 34.30082172 18.44884823 31.32020248 16.36572266 28.3359375 C14.22307764 25.23819989 12.1149237 22.11672966 10 19 C9.67 29.56 9.34 40.12 9 51 C6.03 51 3.06 51 0 51 C0 34.17 0 17.34 0 0 Z " fill="#F8D62F" transform="translate(529,543)"/>
<path d="M0 0 C3.3 0 6.6 0 10 0 C12.40310482 6.78088041 14.80584743 13.56188902 17.20825195 20.34301758 C18.02586022 22.65067022 18.84356809 24.95828758 19.66137695 27.26586914 C20.83571029 30.57949741 22.00968734 33.89325172 23.18359375 37.20703125 C23.55028671 38.2414888 23.91697968 39.27594635 24.29478455 40.3417511 C24.6350618 41.3025206 24.97533905 42.2632901 25.32592773 43.25317383 C25.6257103 44.09922684 25.92549286 44.94527985 26.23435974 45.81697083 C26.83841652 47.53928566 27.42282992 49.26848976 28 51 C24.7 51 21.4 51 18 51 C16.68 47.7 15.36 44.4 14 41 C7.4 40.67 0.8 40.34 -6 40 C-6.99 43.63 -7.98 47.26 -9 51 C-12.3 51 -15.6 51 -19 51 C-13.0130487 33.85374235 -6.96357692 16.78042462 0 0 Z " fill="#F9E032" transform="translate(489,543)"/>
<path d="M0 0 C10.23 0 20.46 0 31 0 C31 2.97 31 5.94 31 9 C23.74 9 16.48 9 9 9 C9 12.96 9 16.92 9 21 C15.6 21 22.2 21 29 21 C29 23.97 29 26.94 29 30 C22.4 30 15.8 30 9 30 C9 33.96 9 37.92 9 42 C16.26 42 23.52 42 31 42 C31 44.97 31 47.94 31 51 C20.77 51 10.54 51 0 51 C0 34.17 0 17.34 0 0 Z " fill="#F8DA31" transform="translate(684,543)"/>
<path d="M0 0 C3.25214138 1.87264698 5.0179634 3.79266307 6.5 7.3125 C6.5 7.9725 6.5 8.6325 6.5 9.3125 C2.11218837 11.38452216 2.11218837 11.38452216 -0.625 11.0625 C-2.5 10.3125 -2.5 10.3125 -5.5 8.3125 C-7.94544278 7.99606727 -7.94544278 7.99606727 -10.5625 8.0625 C-11.44035156 8.05734375 -12.31820312 8.0521875 -13.22265625 8.046875 C-15.69802328 8.09690648 -15.69802328 8.09690648 -17.5 10.3125 C-17.66681109 13.39597826 -17.66681109 13.39597826 -17.5 16.3125 C-16.20906867 16.75216502 -14.91719164 17.18905299 -13.625 17.625 C-12.80773437 17.90214844 -11.99046875 18.17929687 -11.1484375 18.46484375 C-9.39729589 19.02531238 -7.63058527 19.5394711 -5.8515625 20.00390625 C0.50389111 21.6738828 3.88093106 23.69569051 7.8125 29.125 C9.31011963 33.89015336 8.98905251 37.97404049 7.3125 42.5625 C4.03398552 47.53679784 0.28620874 50.002415 -5.5 51.3125 C-12.61638459 52.11400407 -18.38958928 51.150136 -24.5 47.3125 C-27.125 44.8125 -27.125 44.8125 -28.5 42.3125 C-28.5 40.125 -28.5 40.125 -27.5 38.3125 C-25.32391538 36.73671459 -24.12273085 36.2558881 -21.4375 36.5 C-19.22983165 37.42579641 -18.14248492 38.59860269 -16.5 40.3125 C-12.29341995 41.71469335 -8.4087274 41.86502635 -4.125 40.625 C-2.30098052 39.36349458 -2.30098052 39.36349458 -1.5 36.9375 C-1.23675228 34.2356349 -1.23675228 34.2356349 -3.0390625 32.26953125 C-6.11459497 29.82375067 -9.11897768 29.16191475 -12.875 28.375 C-18.56907937 27.03240465 -22.53998344 25.73840086 -26.5 21.3125 C-28.47812135 17.3562573 -27.92084067 12.62459207 -27.5 8.3125 C-25.40261208 3.50598601 -22.53575401 1.08905392 -17.83984375 -0.9921875 C-11.81294834 -2.78315141 -5.74549312 -2.58758422 0 0 Z " fill="#F5D932" transform="translate(614.5,543.6875)"/>
<path d="M0 0 C10.56 0 21.12 0 32 0 C32 2.97 32 5.94 32 9 C24.41 9 16.82 9 9 9 C9 13.29 9 17.58 9 22 C15.6 22 22.2 22 29 22 C29 24.97 29 27.94 29 31 C22.4 31 15.8 31 9 31 C9 37.6 9 44.2 9 51 C6.03 51 3.06 51 0 51 C0 34.17 0 17.34 0 0 Z " fill="#F9D72D" transform="translate(638,543)"/>
<path d="M0 0 C12.21 0 24.42 0 37 0 C37 2.97 37 5.94 37 9 C32.38 9 27.76 9 23 9 C23 22.86 23 36.72 23 51 C20.03 51 17.06 51 14 51 C14 37.14 14 23.28 14 9 C9.38 9 4.76 9 0 9 C0 6.03 0 3.06 0 0 Z " fill="#FCD728" transform="translate(372,543)"/>
<path d="M0 0 C0.99 0.495 0.99 0.495 2 1 C4.71262116 1.2322646 7.40773126 1.41936235 10.125 1.5625 C11.25615234 1.62727539 11.25615234 1.62727539 12.41015625 1.69335938 C14.27321888 1.7994832 16.13658524 1.90025001 18 2 C18 2.99 18 3.98 18 5 C13.545 5.495 13.545 5.495 9 6 C9 12.27 9 18.54 9 25 C11.84625 24.7834375 11.84625 24.7834375 14.75 24.5625 C15.81734375 24.48128906 16.8846875 24.40007813 17.984375 24.31640625 C21.57206478 23.98094346 21.57206478 23.98094346 25 23 C26.54799337 18.35601989 26.49594333 13.67482292 25 9 C24.34 9 23.68 9 23 9 C23 8.34 23 7.68 23 7 C26 8 26 8 27.16015625 9.7421875 C28.39133625 13.05205746 28.39754824 16.25637133 28.55859375 19.7578125 C28.77708984 20.86769531 28.77708984 20.86769531 29 22 C29.99 22.66 30.98 23.32 32 24 C33.345842 22.87927536 33.345842 22.87927536 33.1328125 19.98046875 C33.12894531 18.10294922 33.12894531 18.10294922 33.125 16.1875 C33.12757813 14.94355469 33.13015625 13.69960938 33.1328125 12.41796875 C33.02767173 9.71213998 32.81143252 7.55665645 32 5 C34.77743622 7.53592003 35.85971294 9.43256193 36.203125 13.26953125 C36.30169456 18.61692994 36.16143318 22.46861245 33 27 C29.14577118 30.87529018 26.01486919 32.94494893 20.42578125 33.09765625 C19.05464924 33.09196386 17.68354437 33.07901509 16.3125 33.0625 C12.6928125 33.0315625 12.6928125 33.0315625 9 33 C9 38.61 9 44.22 9 50 C6.03 50 3.06 50 0 50 C0 33.5 0 17 0 0 Z " fill="#FBD62B" transform="translate(809,544)"/>
<path d="M0 0 C2.97 0 5.94 0 9 0 C9 13.86 9 27.72 9 42 C16.26 42 23.52 42 31 42 C31 44.97 31 47.94 31 51 C20.77 51 10.54 51 0 51 C0 34.17 0 17.34 0 0 Z " fill="#F9D22B" transform="translate(859,543)"/>
<path d="M0 0 C3.83307169 -0.11719175 7.66567608 -0.18758077 11.5 -0.25 C12.57765625 -0.28351562 13.6553125 -0.31703125 14.765625 -0.3515625 C21.16716156 -0.42963002 26.91987589 -0.31591724 32 4 C34.27825698 8.29271578 34.27044288 12.44592385 34.25 17.25 C34.25773438 19.08304688 34.25773438 19.08304688 34.265625 20.953125 C34 24 34 24 32 26 C30.0390625 24.80859375 30.0390625 24.80859375 28 23 C27.4609375 20.66015625 27.4609375 20.66015625 27.375 18.0625 C27.23578133 14.51242404 26.91757686 12.03956333 25 9 C24.34 8.67 23.68 8.34 23 8 C23 8.66 23 9.32 23 10 C23.66 10 24.32 10 25 10 C27.33573034 13.64957865 27.45652447 16.73910491 27 21 C25.13291495 23.36497439 23.67938569 24.66030715 21 26 C18.95944995 26.07065617 16.91665743 26.08421976 14.875 26.0625 C11.966875 26.0315625 11.966875 26.0315625 9 26 C8.67 19.4 8.34 12.8 8 6 C11.3 6 14.6 6 18 6 C18 5.01 18 4.02 18 3 C16.86820313 3.03480469 15.73640625 3.06960938 14.5703125 3.10546875 C13.08855647 3.13360336 11.60678444 3.16090387 10.125 3.1875 C9.00544922 3.22520508 9.00544922 3.22520508 7.86328125 3.26367188 C5.6953125 3.29296875 5.6953125 3.29296875 2 3 C1.34 2.01 0.68 1.02 0 0 Z M27 24 C29 25 29 25 29 25 Z " fill="#F6D72F" transform="translate(809,543)"/>
<path d="M0 0 C3.3 0 6.6 0 10 0 C11.53299921 4.28741966 13.04932399 8.58054804 14.5625 12.875 C15.21895508 14.70998047 15.21895508 14.70998047 15.88867188 16.58203125 C16.29794922 17.74863281 16.70722656 18.91523437 17.12890625 20.1171875 C17.51119385 21.19597168 17.89348145 22.27475586 18.28735352 23.38623047 C19 26 19 26 18 28 C17.75765625 27.38253906 17.5153125 26.76507812 17.265625 26.12890625 C14.98012832 20.35363196 12.56805164 14.65517755 10 9 C9.67 9.66 9.34 10.32 9 11 C8.01 11 7.02 11 6 11 C6.433125 12.18078125 6.86625 13.3615625 7.3125 14.578125 C7.87533301 16.13529634 8.43781467 17.69259471 9 19.25 C9.28617187 20.02730469 9.57234375 20.80460938 9.8671875 21.60546875 C10.13789063 22.35957031 10.40859375 23.11367188 10.6875 23.890625 C10.93886719 24.58188477 11.19023437 25.27314453 11.44921875 25.98535156 C12 28 12 28 12 32 C11.07719238 31.9685791 11.07719238 31.9685791 10.13574219 31.93652344 C7.34066191 31.85322983 4.54584285 31.80129987 1.75 31.75 C0.78191406 31.71648438 -0.18617188 31.68296875 -1.18359375 31.6484375 C-6.82953228 31.45269069 -6.82953228 31.45269069 -11.671875 34.015625 C-12.11015625 34.67046875 -12.5484375 35.3253125 -13 36 C-10.76089995 27.92724259 -7.85969819 20.17339308 -4.8125 12.375 C-4.34908203 11.18003906 -3.88566406 9.98507812 -3.40820312 8.75390625 C-2.27551405 5.83460451 -1.13938352 2.91669396 0 0 Z " fill="#F3DC36" transform="translate(489,543)"/>
<path d="M0 0 C2.475 0.99 2.475 0.99 5 2 C5 15.2 5 28.4 5 42 C11.6 42 18.2 42 25 42 C26 43 26 43 26.09765625 45.72265625 C26.08605469 46.82480469 26.07445312 47.92695312 26.0625 49.0625 C26.05347656 50.16722656 26.04445313 51.27195312 26.03515625 52.41015625 C26.02355469 53.26480469 26.01195312 54.11945312 26 55 C21.4793335 55.02468857 16.9587061 55.04285449 12.43798828 55.05493164 C10.89956987 55.05996552 9.36115625 55.06679308 7.82275391 55.07543945 C5.61359474 55.08754639 3.40449874 55.09323769 1.1953125 55.09765625 C0.16085495 55.10539818 0.16085495 55.10539818 -0.89450073 55.11329651 C-5.77225659 55.11387171 -5.77225659 55.11387171 -8 54 C-8 36.51 -8 19.02 -8 1 C-6.02 1 -4.04 1 -2 1 C-3.32 1.33 -4.64 1.66 -6 2 C-6 18.83 -6 35.66 -6 53 C4.23 53 14.46 53 25 53 C25 50.03 25 47.06 25 44 C17.74 44 10.48 44 3 44 C3 30.14 3 16.28 3 2 C1.68 1.67 0.36 1.34 -1 1 C-0.67 0.67 -0.34 0.34 0 0 Z " fill="#020106" transform="translate(865,541)"/>
<path d="M0 0 C6.93 0 13.86 0 21 0 C21 32.34 21 64.68 21 98 C14.4 98 7.8 98 1 98 C1 77.21 1 56.42 1 35 C1.33 35 1.66 35 2 35 C2 55.13 2 75.26 2 96 C7.61 96 13.22 96 19 96 C19 64.65 19 33.3 19 1 C12.73 1 6.46 1 0 1 C0 0.67 0 0.34 0 0 Z " fill="#D4CA48" transform="translate(455,405)"/>
<path d="M0 0 C3.06636678 3.47759965 4.24886035 7.3321837 5.5625 11.6875 C6.31060456 14.163425 7.11079686 16.56716368 8 19 C8.66 19.33 9.32 19.66 10 20 C10.6328125 22.14453125 10.6328125 22.14453125 11.125 24.8125 C11.29257812 25.68519531 11.46015625 26.55789063 11.6328125 27.45703125 C12 30 12 30 12 34 C11.34 34 10.68 34 10 34 C9.67 35.98 9.34 37.96 9 40 C7 38 7 38 6 31 C-1.26 30.67 -8.52 30.34 -16 30 C-13 26 -13 26 -9.86328125 25.390625 C-8.10564453 25.32101562 -8.10564453 25.32101562 -6.3125 25.25 C-5.13300781 25.19328125 -3.95351563 25.1365625 -2.73828125 25.078125 C-1.83464844 25.05234375 -0.93101562 25.0265625 0 25 C1.52539346 20.27767415 0.22148293 16.77832611 -1.4375 12.3125 C-4 5.18236074 -4 5.18236074 -4 3 C-3.01 3 -2.02 3 -1 3 C-0.67 2.01 -0.34 1.02 0 0 Z " fill="#FAD329" transform="translate(499,551)"/>
<path d="M0 0 C13.49466919 -0.37141291 13.49466919 -0.37141291 15.88671875 1.38671875 C18.3569925 4.96644877 18.37307242 7.67235993 18 12 C16.13291495 14.36497439 14.67938569 15.66030715 12 17 C9.95944995 17.07065617 7.91665743 17.08421976 5.875 17.0625 C2.966875 17.0315625 2.966875 17.0315625 0 17 C0 11.39 0 5.78 0 0 Z " fill="#0C0C0B" transform="translate(818,552)"/>
<path d="M0 0 C9.24 0 18.48 0 28 0 C28 1.98 28 3.96 28 6 C20.74 6 13.48 6 6 6 C6 10.62 6 15.24 6 20 C4.68 20 3.36 20 2 20 C1.67 28.91 1.34 37.82 1 47 C0.67 47 0.34 47 0 47 C0 31.49 0 15.98 0 0 Z " fill="#F8CD27" transform="translate(640,545)"/>
<path d="M0 0 C10.546875 -0.48828125 10.546875 -0.48828125 14 0 C16.4797544 2.28627037 17.81863468 3.76218167 18.3125 7.1328125 C18.209375 7.79023437 18.10625 8.44765625 18 9.125 C17.9175 9.78757812 17.835 10.45015625 17.75 11.1328125 C16.67511814 13.80882047 15.53609995 14.63537668 13 16 C9.765625 16.29296875 9.765625 16.29296875 6.25 16.1875 C4.1875 16.125625 2.125 16.06375 0 16 C0 10.72 0 5.44 0 0 Z " fill="#080908" transform="translate(741,552)"/>
<path d="M0 0 C13.4247216 -0.36948775 13.4247216 -0.36948775 15.921875 1.234375 C17.26603213 3.43567581 17.4331615 4.86476971 17.4375 7.4375 C17.46650391 8.58025391 17.46650391 8.58025391 17.49609375 9.74609375 C16.79037054 12.95241103 15.64895542 14.08566517 13 16 C8.60786271 16.53045136 4.44112074 16.17764483 0 16 C0 10.72 0 5.44 0 0 Z " fill="#0A0A09" transform="translate(432,552)"/>
<path d="M0 0 C10.56 0 21.12 0 32 0 C32 2.97 32 5.94 32 9 C24.41 9 16.82 9 9 9 C9 13.29 9 17.58 9 22 C8.67 22 8.34 22 8 22 C8 17.38 8 12.76 8 8 C15.26 8 22.52 8 30 8 C30 6.02 30 4.04 30 2 C20.76 2 11.52 2 2 2 C2 17.84 2 33.68 2 50 C3.98 50 5.96 50 8 50 C8 43.73 8 37.46 8 31 C8.33 31 8.66 31 9 31 C9 37.6 9 44.2 9 51 C6.03 51 3.06 51 0 51 C0 34.17 0 17.34 0 0 Z " fill="#E7DC3D" transform="translate(638,543)"/>
<path d="M0 0 C2.97 0 5.94 0 9 0 C9 13.86 9 27.72 9 42 C12.63 42 16.26 42 20 42 C20 42.33 20 42.66 20 43 C18.02090602 43.02686553 16.04171029 43.04633375 14.0625 43.0625 C12.96035156 43.07410156 11.85820313 43.08570313 10.72265625 43.09765625 C8 43 8 43 7 42 C6.91131701 39.04294679 6.88479704 36.10934944 6.90234375 33.15234375 C6.9037587 32.2659169 6.90517365 31.37949005 6.90663147 30.46620178 C6.91224785 27.62326746 6.92480309 24.78041069 6.9375 21.9375 C6.94251289 20.01497509 6.94707616 18.09244896 6.95117188 16.16992188 C6.96222259 11.44658451 6.97949817 6.72330542 7 2 C5.02 2 3.04 2 1 2 C1 17.51 1 33.02 1 49 C10.24 49 19.48 49 29 49 C29 47.02 29 45.04 29 43 C29.33 43 29.66 43 30 43 C30 45.64 30 48.28 30 51 C20.1 51 10.2 51 0 51 C0 34.17 0 17.34 0 0 Z " fill="#FCF43D" transform="translate(859,543)"/>
<path d="M0 0 C11.22 0 22.44 0 34 0 C34 1.98 34 3.96 34 6 C32.67935547 6.07347656 32.67935547 6.07347656 31.33203125 6.1484375 C29.58986328 6.26058594 29.58986328 6.26058594 27.8125 6.375 C26.08966797 6.47941406 26.08966797 6.47941406 24.33203125 6.5859375 C20.43886318 7.06973095 17.47456024 8.26271988 14 10 C13.67 9.01 13.34 8.02 13 7 C8.71 6.67 4.42 6.34 0 6 C0 4.02 0 2.04 0 0 Z " fill="#FBD029" transform="translate(374,545)"/>
<path d="M0 0 C10.89 0 21.78 0 33 0 C34.11445498 2.22890995 34.16480286 3.53055106 34.1875 6 C34.20167969 6.70125 34.21585938 7.4025 34.23046875 8.125 C34 10 34 10 32 12 C29.84521484 12.22705078 29.84521484 12.22705078 27.2109375 12.1953125 C26.26992188 12.18886719 25.32890625 12.18242188 24.359375 12.17578125 C23.37453125 12.15902344 22.3896875 12.14226563 21.375 12.125 C20.38242187 12.11597656 19.38984375 12.10695313 18.3671875 12.09765625 C15.91135612 12.07404249 13.45564826 12.0381707 11 12 C11 15.3 11 18.6 11 22 C12.35996094 21.98839844 13.71992187 21.97679687 15.12109375 21.96484375 C16.8932278 21.95546738 18.66536333 21.94636702 20.4375 21.9375 C21.78424805 21.92493164 21.78424805 21.92493164 23.15820312 21.91210938 C24.01220703 21.90888672 24.86621094 21.90566406 25.74609375 21.90234375 C26.93223267 21.89448853 26.93223267 21.89448853 28.14233398 21.88647461 C30 22 30 22 31 23 C31.09823937 24.66429051 31.12973631 26.33281931 31.125 28 C31.12886719 29.36125 31.12886719 29.36125 31.1328125 30.75 C31 33 31 33 30 34 C28.58429877 34.08651611 27.164405 34.10704904 25.74609375 34.09765625 C24.89208984 34.09443359 24.03808594 34.09121094 23.15820312 34.08789062 C22.26037109 34.07951172 21.36253906 34.07113281 20.4375 34.0625 C19.53580078 34.05798828 18.63410156 34.05347656 17.70507812 34.04882812 C15.47002411 34.03700244 13.23500398 34.01906638 11 34 C11 39.61 11 45.22 11 51 C10.67 51 10.34 51 10 51 C9.67 44.73 9.34 38.46 9 32 C15.6 32 22.2 32 29 32 C29 29.03 29 26.06 29 23 C22.4 23 15.8 23 9 23 C9 18.71 9 14.42 9 10 C16.59 10 24.18 10 32 10 C32 7.03 32 4.06 32 1 C21.44 1 10.88 1 0 1 C0 0.67 0 0.34 0 0 Z " fill="#030305" transform="translate(638,542)"/>
<path d="M0 0 C12.21 0 24.42 0 37 0 C37 2.97 37 5.94 37 9 C32.38 9 27.76 9 23 9 C23 22.86 23 36.72 23 51 C20.03 51 17.06 51 14 51 C14 37.14 14 23.28 14 9 C9.38 9 4.76 9 0 9 C0 6.03 0 3.06 0 0 Z M2 2 C2 3.98 2 5.96 2 8 C6.29 8 10.58 8 15 8 C15 21.86 15 35.72 15 50 C17.31 50 19.62 50 22 50 C22.33 36.47 22.66 22.94 23 9 C29.435 8.505 29.435 8.505 36 8 C36 6.02 36 4.04 36 2 C24.78 2 13.56 2 2 2 Z " fill="#F9F341" transform="translate(372,543)"/>
<path d="M0 0 C1 1 1 1 1.1328125 2.99609375 C1.13023437 3.80175781 1.12765625 4.60742188 1.125 5.4375 C1.12886719 6.64212891 1.12886719 6.64212891 1.1328125 7.87109375 C1 10 1 10 0 12 C-4.29 12 -8.58 12 -13 12 C-13 24.54 -13 37.08 -13 50 C-13.99 50.495 -13.99 50.495 -15 51 C-15 37.47 -15 23.94 -15 10 C-10.38 10 -5.76 10 -1 10 C-1 7.03 -1 4.06 -1 1 C-13.21 1 -25.42 1 -38 1 C-38 4.3 -38 7.6 -38 11 C-34.37 11 -30.74 11 -27 11 C-27 11.33 -27 11.66 -27 12 C-30.96 12 -34.92 12 -39 12 C-40.12256131 9.75487738 -40.13413762 8.48543351 -40.125 6 C-40.12886719 4.948125 -40.12886719 4.948125 -40.1328125 3.875 C-40 2 -40 2 -39 0 C-12.28507374 -1.54853871 -12.28507374 -1.54853871 0 0 Z " fill="#020204" transform="translate(410,542)"/>
<path d="M0 0 C3.87518799 -0.05407239 7.74961715 -0.09371087 11.625 -0.125 C13.26662109 -0.15013672 13.26662109 -0.15013672 14.94140625 -0.17578125 C25.8685045 -0.24200609 25.8685045 -0.24200609 30 2 C30.83984375 3.828125 30.83984375 3.828125 31 6 C31.10441406 6.77859375 31.20882812 7.5571875 31.31640625 8.359375 C31.43822266 9.54273438 31.43822266 9.54273438 31.5625 10.75 C31.68818359 11.94882812 31.68818359 11.94882812 31.81640625 13.171875 C31.87699219 13.77515625 31.93757812 14.3784375 32 15 C31.34 14.34 30.68 13.68 30 13 C29.01 13.33 28.02 13.66 27 14 C26.67 14.99 26.34 15.98 26 17 C25.67 14.03 25.34 11.06 25 8 C19.17251381 5.57188075 13.2242509 5.38272093 7 5 C7 4.67 7 4.34 7 4 C9.97 4 12.94 4 16 4 C16 3.34 16 2.68 16 2 C11.05 1.67 6.1 1.34 1 1 C1 5.62 1 10.24 1 15 C0.67 15 0.34 15 0 15 C0 10.05 0 5.1 0 0 Z " fill="#F8CF28" transform="translate(734,545)"/>
<path d="M0 0 C2.77743622 2.53592003 3.85971294 4.43256193 4.203125 8.26953125 C4.30169456 13.61692994 4.16143318 17.46861245 1 22 C-2.85422882 25.87529018 -5.98513081 27.94494893 -11.57421875 28.09765625 C-12.94534658 28.09103244 -14.31645717 28.07914198 -15.6875 28.0625 C-16.38939453 28.05798828 -17.09128906 28.05347656 -17.81445312 28.04882812 C-19.54300538 28.03706927 -21.27151365 28.01913454 -23 28 C-23 27.67 -23 27.34 -23 27 C-19.7 26.67 -16.4 26.34 -13 26 C-13 24.68 -13 23.36 -13 22 C-12.01 22 -11.02 22 -10 22 C-9.67 20.68 -9.34 19.36 -9 18 C-8.34 18 -7.68 18 -7 18 C-5.45200663 13.35601989 -5.50405667 8.67482292 -7 4 C-7.66 4 -8.32 4 -9 4 C-9 3.34 -9 2.68 -9 2 C-6 3 -6 3 -4.83984375 4.7421875 C-3.60866375 8.05205746 -3.60245176 11.25637133 -3.44140625 14.7578125 C-3.22291016 15.86769531 -3.22291016 15.86769531 -3 17 C-2.01 17.66 -1.02 18.32 0 19 C1.345842 17.87927536 1.345842 17.87927536 1.1328125 14.98046875 C1.12894531 13.10294922 1.12894531 13.10294922 1.125 11.1875 C1.12757813 9.94355469 1.13015625 8.69960938 1.1328125 7.41796875 C1.02767173 4.71213998 0.81143252 2.55665645 0 0 Z " fill="#F6E239" transform="translate(841,549)"/>
<path d="M0 0 C2.71609918 2.71609918 3.46920222 5.86595045 4.625 9.4375 C4.85445313 10.11876953 5.08390625 10.80003906 5.3203125 11.50195312 C6.29042613 14.44982818 7 16.87666842 7 20 C2.38 20 -2.24 20 -7 20 C-6.02265137 17.04105462 -5.04320756 14.08283196 -4.0625 11.125 C-3.78470703 10.28324219 -3.50691406 9.44148437 -3.22070312 8.57421875 C-2.95322266 7.76855469 -2.68574219 6.96289062 -2.41015625 6.1328125 C-2.16402588 5.38918457 -1.91789551 4.64555664 -1.66430664 3.87939453 C-1 2 -1 2 0 0 Z " fill="#0D0C0B" transform="translate(493,555)"/>
<path d="M0 0 C2.31 0.33 4.62 0.66 7 1 C7 1.33 7 1.66 7 2 C5.35 2 3.7 2 2 2 C2 17.84 2 33.68 2 50 C3.98 50 5.96 50 8 50 C8 39.44 8 28.88 8 18 C8.33 18 8.66 18 9 18 C9 28.89 9 39.78 9 51 C6.03 51 3.06 51 0 51 C0 34.17 0 17.34 0 0 Z " fill="#E6DC42" transform="translate(529,543)"/>
<path d="M0 0 C0.99 0.495 0.99 0.495 2 1 C2 16.51 2 32.02 2 48 C3.98 48 5.96 48 8 48 C8 43.05 8 38.1 8 33 C8.33 33 8.66 33 9 33 C9 38.61 9 44.22 9 50 C6.03 50 3.06 50 0 50 C0 33.5 0 17 0 0 Z " fill="#FBEF45" transform="translate(809,544)"/>
<path d="M0 0 C1.8125 1.5625 1.8125 1.5625 3 3 C2.67 3.99 2.34 4.98 2 6 C1.34 6 0.68 6 0 6 C-0.66 9.63 -1.32 13.26 -2 17 C-2.33 17 -2.66 17 -3 17 C-3.390625 15.01432292 -3.78125 13.02864583 -4.171875 11.04296875 C-5.2934857 8.27597632 -6.38173298 7.43131931 -9 6 C-12.26875041 5.42385742 -12.26875041 5.42385742 -15.75 5.3125 C-16.92046875 5.24675781 -18.0909375 5.18101562 -19.296875 5.11328125 C-20.18890625 5.07589844 -21.0809375 5.03851562 -22 5 C-22 4.67 -22 4.34 -22 4 C-16.06 3.505 -16.06 3.505 -10 3 C-10 2.01 -10 1.02 -10 0 C-6.32009358 -0.94626165 -3.64834225 -1.15210808 0 0 Z " fill="#FBE02F" transform="translate(453,546)"/>
<path d="M0 0 C2.08144267 2.08144267 2.57368138 3.19289793 3.5078125 5.9140625 C3.77207031 6.67460938 4.03632812 7.43515625 4.30859375 8.21875 C4.57800781 9.0128125 4.84742188 9.806875 5.125 10.625 C5.54072266 11.82769531 5.54072266 11.82769531 5.96484375 13.0546875 C6.64841148 15.03467679 7.32488427 17.01711292 8 19 C4.7 19 1.4 19 -2 19 C-3.32 15.7 -4.64 12.4 -6 9 C-12.6 8.67 -19.2 8.34 -26 8 C-26 7.67 -26 7.34 -26 7 C-18.74 7 -11.48 7 -4 7 C-3.34 9.31 -2.68 11.62 -2 14 C-1.34 12.68 -0.68 11.36 0 10 C0.66 10 1.32 10 2 10 C1.34 6.7 0.68 3.4 0 0 Z " fill="#E7D540" transform="translate(509,575)"/>
<path d="M0 0 C3.5 0.25 3.5 0.25 5.5 2.25 C5.75 5.75 5.75 5.75 5.5 9.25 C3.5 11.25 3.5 11.25 0 11.5 C-3.5 11.25 -3.5 11.25 -5.5 9.25 C-5.75 5.75 -5.75 5.75 -5.5 2.25 C-3.5 0.25 -3.5 0.25 0 0 Z " fill="#F8DE32" transform="translate(787.5,582.75)"/>
<path d="M0 0 C5.27315333 0.4452885 10.01770224 1.08373163 15 3 C15 3.99 15 4.98 15 6 C14.01 6 13.02 6 12 6 C11.67 6.99 11.34 7.98 11 9 C7.18716777 8.47043997 4.83477353 7.63927191 2 5 C0 1.6 0 1.6 0 0 Z " fill="#F9D32B" transform="translate(604,565)"/>
<path d="M0 0 C6.93 0 13.86 0 21 0 C21.33 1.98 21.66 3.96 22 6 C21 7 21 7 17.83984375 7.09765625 C15.90818359 7.08025391 15.90818359 7.08025391 13.9375 7.0625 C12.64714844 7.05347656 11.35679687 7.04445313 10.02734375 7.03515625 C9.02832031 7.02355469 8.02929688 7.01195312 7 7 C6.67 6.01 6.34 5.02 6 4 C9.3 4 12.6 4 16 4 C16 3.01 16 2.02 16 1 C10.72 1 5.44 1 0 1 C0 0.67 0 0.34 0 0 Z " fill="#E8C82D" transform="translate(811,545)"/>
<path d="M0 0 C4.62 0 9.24 0 14 0 C14.33 0.66 14.66 1.32 15 2 C10.71 1.67 6.42 1.34 2 1 C2 5.62 2 10.24 2 15 C8.435 14.505 8.435 14.505 15 14 C12 17 12 17 9.08203125 17.29296875 C4.54101562 17.14648438 4.54101562 17.14648438 0 17 C0 11.39 0 5.78 0 0 Z " fill="#050506" transform="translate(818,552)"/>
<path d="M0 0 C0.66 0 1.32 0 2 0 C1.43179252 5.45479185 0.05362055 9.91059256 -2 15 C-4 13.875 -4 13.875 -6 12 C-6.51020728 7.91834173 -6.31361802 6.47042703 -4 3 C-2.68 3 -1.36 3 0 3 C0 2.01 0 1.02 0 0 Z " fill="#FBD529" transform="translate(488,557)"/>
<path d="M0 0 C0.89138672 0.21221191 0.89138672 0.21221191 1.80078125 0.42871094 C8.27094379 1.86009604 14.38564946 2.30629235 21 2.25 C22.40958984 2.26160156 22.40958984 2.26160156 23.84765625 2.2734375 C24.74355469 2.27085937 25.63945313 2.26828125 26.5625 2.265625 C27.36816406 2.26336914 28.17382812 2.26111328 29.00390625 2.25878906 C31.23028126 2.17660142 31.23028126 2.17660142 33 0 C36.125 0.375 36.125 0.375 39 1 C31.14918129 6.23387914 19.47059785 5.93385756 10.453125 4.39453125 C4.05653846 3.01884615 4.05653846 3.01884615 1 2 C0.67 1.34 0.34 0.68 0 0 Z " fill="#E9E046" transform="translate(524,500)"/>
<path d="M0 0 C3.39417765 3.12621626 5.6062718 5.56541027 7 10 C5.68 9.67 4.36 9.34 3 9 C1.57055055 11.35438733 0.91338739 12.48032433 1.375 15.25 C1.684375 16.11625 1.684375 16.11625 2 17 C-1.08089673 14.22719294 -2.68775452 11.93673644 -4 8 C-2.02 7.01 -0.04 6.02 2 5 C1.34 3.35 0.68 1.7 0 0 Z " fill="#F4DD39" transform="translate(550,562)"/>
<path d="M0 0 C3.77076889 -0.05799124 7.54142334 -0.09359306 11.3125 -0.125 C12.38435547 -0.14175781 13.45621094 -0.15851562 14.56054688 -0.17578125 C15.58857422 -0.18222656 16.61660156 -0.18867187 17.67578125 -0.1953125 C18.62364502 -0.20578613 19.57150879 -0.21625977 20.5480957 -0.22705078 C23 0 23 0 26 2 C23.44276771 3.27861615 21.63262898 3.11336609 18.7734375 3.09765625 C17.7421875 3.09443359 16.7109375 3.09121094 15.6484375 3.08789062 C14.02808594 3.07532227 14.02808594 3.07532227 12.375 3.0625 C10.74304688 3.05573242 10.74304688 3.05573242 9.078125 3.04882812 C6.38536211 3.03701776 3.69270812 3.02054778 1 3 C0.67 3.66 0.34 4.32 0 5 C0 3.35 0 1.7 0 0 Z " fill="#EDCD34" transform="translate(424,543)"/>
<path d="M0 0 C6.93 0 13.86 0 21 0 C21.33 1.32 21.66 2.64 22 4 C21.34 3.67 20.68 3.34 20 3 C18.6265365 2.84995027 17.2471474 2.75161994 15.8671875 2.68359375 C15.06152344 2.64169922 14.25585938 2.59980469 13.42578125 2.55664062 C12.58402344 2.51732422 11.74226562 2.47800781 10.875 2.4375 C10.02550781 2.39431641 9.17601562 2.35113281 8.30078125 2.30664062 C6.20071777 2.20045764 4.10038052 2.09971503 2 2 C2.66 3.98 3.32 5.96 4 8 C0.78253679 5.34209561 0.91766992 4.58834962 0 0 Z " fill="#EEE545" transform="translate(801,405)"/>
<path d="M0 0 C1.875 0.625 1.875 0.625 4 2 C5.25 5.125 5.25 5.125 6 8 C1.64431487 10.05685131 1.64431487 10.05685131 -1.125 9.8125 C-3.27071167 8.88269161 -4.47490524 7.75385898 -6 6 C-4.02 5.34 -2.04 4.68 0 4 C0 2.68 0 1.36 0 0 Z " fill="#EFDB39" transform="translate(615,545)"/>
<path d="M0 0 C0.99 0 1.98 0 3 0 C3.66 0.66 4.32 1.32 5 2 C5.66 1.67 6.32 1.34 7 1 C6.51421457 4.12290635 6.0013988 6.99580359 5 10 C3.02 10 1.04 10 -1 10 C-0.835 9.2575 -0.67 8.515 -0.5 7.75 C0.11925696 4.80993422 0.11925696 4.80993422 0 1 C0 0.67 0 0.34 0 0 Z " fill="#F8D029" transform="translate(474,582)"/>
<path d="M0 0 C2.05078125 0.03255208 4.1015625 0.06510417 6.15234375 0.09765625 C6.15234375 1.41765625 6.15234375 2.73765625 6.15234375 4.09765625 C6.81234375 4.42765625 7.47234375 4.75765625 8.15234375 5.09765625 C6.27175342 6.97824658 3.65344337 6.22126843 1.16015625 6.23046875 C-0.84765625 6.09765625 -0.84765625 6.09765625 -3.84765625 5.09765625 C-2.72914438 0.14424653 -2.72914438 0.14424653 0 0 Z " fill="#EFCC2F" transform="translate(602.84765625,544.90234375)"/>
<path d="M0 0 C1.93742341 -0.02703381 3.87495479 -0.04641125 5.8125 -0.0625 C6.89144531 -0.07410156 7.97039063 -0.08570313 9.08203125 -0.09765625 C12 0 12 0 15 1 C15 1.66 15 2.32 15 3 C15.66 3.33 16.32 3.66 17 4 C15.75 5.5625 15.75 5.5625 14 7 C11.8125 6.6875 11.8125 6.6875 10 6 C9.67 4.35 9.34 2.7 9 1 C6.03 1 3.06 1 0 1 C0 0.67 0 0.34 0 0 Z " fill="#FBD327" transform="translate(600,544)"/>
<path d="M0 0 C0.33 0.66 0.66 1.32 1 2 C0.01 1.67 -0.98 1.34 -2 1 C-2.66 3.97 -3.32 6.94 -4 10 C-6.5625 7.75 -6.5625 7.75 -9 5 C-9.0625 2.8125 -9.0625 2.8125 -8 1 C-5.13709577 -1.07313754 -3.27107254 -1.35354726 0 0 Z " fill="#EEDB3B" transform="translate(595,581)"/>
<path d="M0 0 C1.65 1.65 3.3 3.3 5 5 C4.01 5.33 3.02 5.66 2 6 C1.67 14.91 1.34 23.82 1 33 C0.67 33 0.34 33 0 33 C0 22.11 0 11.22 0 0 Z " fill="#120F15" transform="translate(538,561)"/>
<path d="M0 0 C0.99 0.495 0.99 0.495 2 1 C1.67 1.66 1.34 2.32 1 3 C1.84304688 3.36738281 1.84304688 3.36738281 2.703125 3.7421875 C5.41865854 5.22926539 7.46391438 7.04062782 9.75 9.125 C10.94882812 10.21167969 10.94882812 10.21167969 12.171875 11.3203125 C12.77515625 11.87460937 13.3784375 12.42890625 14 13 C13.34 13.66 12.68 14.32 12 15 C11.30132812 14.28972656 10.60265625 13.57945312 9.8828125 12.84765625 C8.97273438 11.92855469 8.06265625 11.00945312 7.125 10.0625 C6.22007812 9.14597656 5.31515625 8.22945313 4.3828125 7.28515625 C2.22317745 4.98812373 2.22317745 4.98812373 0 4 C0 2.68 0 1.36 0 0 Z " fill="#15150F" transform="translate(286,417)"/>
<path d="M0 0 C0.66 0.33 1.32 0.66 2 1 C2 1.99 2 2.98 2 4 C1.34 4 0.68 4 0 4 C-0.33 5.65 -0.66 7.3 -1 9 C0.98 9 2.96 9 5 9 C5 9.66 5 10.32 5 11 C2.03 11 -0.94 11 -4 11 C-2.68 7.37 -1.36 3.74 0 0 Z " fill="#F7EC49" transform="translate(474,583)"/>
<path d="M0 0 C0.33 0 0.66 0 1 0 C1.33 2.64 1.66 5.28 2 8 C1.34 8 0.68 8 0 8 C0.04125 8.928125 0.0825 9.85625 0.125 10.8125 C0 14 0 14 -2 17 C-2.66 17 -3.32 17 -4 17 C-2.68 11.39 -1.36 5.78 0 0 Z " fill="#181510" transform="translate(325,526)"/>
<path d="M0 0 C3.00469351 2.59496258 3.36858796 3.9214699 5 8 C1.37 8 -2.26 8 -6 8 C-6 7.34 -6 6.68 -6 6 C-3.36 6 -0.72 6 2 6 C1.34 4.02 0.68 2.04 0 0 Z " fill="#F1E949" transform="translate(765,586)"/>
<path d="M0 0 C2 2 2 2 2 5 C-1.9813783 6.3271261 -5.85045227 6.06915913 -10 6 C-10.33 4.35 -10.66 2.7 -11 1 C-10.34 1.66 -9.68 2.32 -9 3 C-6.78927023 3.24253813 -6.78927023 3.24253813 -4.375 3.125 C-3.55773437 3.10695313 -2.74046875 3.08890625 -1.8984375 3.0703125 C-1.27195312 3.04710937 -0.64546875 3.02390625 0 3 C0 2.01 0 1.02 0 0 Z " fill="#020203" transform="translate(516,590)"/>
<path d="M0 0 C1.15941038 3.47823115 0.70820884 5.45895578 0 9 C-1.98 9.33 -3.96 9.66 -6 10 C-5.18957164 8.51969728 -4.37659652 7.04078858 -3.5625 5.5625 C-2.88380859 4.32693359 -2.88380859 4.32693359 -2.19140625 3.06640625 C-1 1 -1 1 0 0 Z " fill="#12100F" transform="translate(456,437)"/>
<path d="M0 0 C0.33 1.32 0.66 2.64 1 4 C-1.4375 6.75 -1.4375 6.75 -4 9 C-4.99 8.34 -5.98 7.68 -7 7 C-4.69 4.69 -2.38 2.38 0 0 Z " fill="#F1DA38" transform="translate(284,570)"/>
<path d="M0 0 C0.33 0 0.66 0 1 0 C1 3.63 1 7.26 1 11 C-0.32 9.68 -1.64 8.36 -3 7 C-2.34 6.67 -1.68 6.34 -1 6 C-1.0309375 4.7934375 -1.0309375 4.7934375 -1.0625 3.5625 C-1 1 -1 1 0 0 Z " fill="#040404" transform="translate(561,566)"/>
<path d="M0 0 C0.33 0 0.66 0 1 0 C0.52060632 4.71403788 0.03165952 8.66579301 -2 13 C-3.231394 9.30581799 -2.64432764 6.7943739 -2 3 C-1.34 3 -0.68 3 0 3 C0 2.01 0 1.02 0 0 Z " fill="#040406" transform="translate(307,527)"/>
<path d="M0 0 C0.33 0 0.66 0 1 0 C1 2.31 1 4.62 1 7 C0.34 7 -0.32 7 -1 7 C-1 7.66 -1 8.32 -1 9 C-0.34 9.33 0.32 9.66 1 10 C0.01 10.33 -0.98 10.66 -2 11 C-1.85892253 9.54119891 -1.71197585 8.08296449 -1.5625 6.625 C-1.48128906 5.81289063 -1.40007812 5.00078125 -1.31640625 4.1640625 C-1 2 -1 2 0 0 Z " fill="#060707" transform="translate(493,555)"/>
<path d="M0 0 C0.66 0 1.32 0 2 0 C2 0.66 2 1.32 2 2 C2.66 2 3.32 2 4 2 C4.33 1.34 4.66 0.68 5 0 C6.125 5.75 6.125 5.75 5 8 C4.16382818 6.8562364 3.33113541 5.70992861 2.5 4.5625 C2.0359375 3.92441406 1.571875 3.28632813 1.09375 2.62890625 C0 1 0 1 0 0 Z " fill="#F1DE3C" transform="translate(634,441)"/>
<path d="M0 0 C0.33 0 0.66 0 1 0 C1.33 2.97 1.66 5.94 2 9 C1.01 9.33 0.02 9.66 -1 10 C-0.67 6.7 -0.34 3.4 0 0 Z " fill="#151210" transform="translate(114,526)"/>
<path d="M0 0 C-6.625 3 -6.625 3 -10 3 C-10 2.01 -10 1.02 -10 0 C-3.375 -1.125 -3.375 -1.125 0 0 Z " fill="#161510" transform="translate(560,483)"/>
<path d="M0 0 C1.32 0 2.64 0 4 0 C3.67 1.32 3.34 2.64 3 4 C1.68 4.33 0.36 4.66 -1 5 C-1.33 4.01 -1.66 3.02 -2 2 C-1.34 1.34 -0.68 0.68 0 0 Z " fill="#11110F" transform="translate(238,482)"/>
<path d="M0 0 C0 0.99 0 1.98 0 3 C-2.97 3.66 -5.94 4.32 -9 5 C-2.87096774 0 -2.87096774 0 0 0 Z " fill="#EBDA3C" transform="translate(172,409)"/>
<path d="M0 0 C3.465 1.485 3.465 1.485 7 3 C6.67 3.66 6.34 4.32 6 5 C4.35 4.67 2.7 4.34 1 4 C0.67 2.68 0.34 1.36 0 0 Z " fill="#11110D" transform="translate(168,600)"/>
<path d="M0 0 C0.66 0.33 1.32 0.66 2 1 C0.68 3.31 -0.64 5.62 -2 8 C-2.33 8 -2.66 8 -3 8 C-3.1875 5.125 -3.1875 5.125 -3 2 C-2.01 1.34 -1.02 0.68 0 0 Z " fill="#171512" transform="translate(500,424)"/>
</svg>
