<?xml version="1.0" encoding="UTF-8"?>
<svg id="Layer_1" data-name="Layer 1" xmlns="http://www.w3.org/2000/svg" width="40" height="40" viewBox="0 0 40 40">
  <circle cx="20" cy="20" r="20" style="fill: #fff;"/>
  <path d="m20,.87c10.565,0,19.13,8.565,19.13,19.13s-8.565,19.13-19.13,19.13S.87,30.565.87,20,9.435.87,20,.87Z"/>
  <path d="m21.903,18.435l7.445-8.655h-1.764l-6.465,7.515-5.163-7.515h-5.955l7.808,11.364-7.808,9.076h1.764l6.827-7.936,5.453,7.936h5.955l-8.098-11.785h0Zm-2.417,2.809l-.791-1.132-6.295-9.004h2.71l5.08,7.267.791,1.132,6.603,9.445h-2.71l-5.389-7.707h0Z" style="fill: #fff;"/>
</svg>