<svg version="1.2" xmlns="http://www.w3.org/2000/svg" viewBox="0 0 30 30" width="30" height="30"><defs><clipPath clipPathUnits="userSpaceOnUse" id="cp1"><path d="m0 0h30v30h-30z"/></clipPath><clipPath clipPathUnits="userSpaceOnUse" id="cp2"><path d="m0 0v48h30v-48z"/></clipPath></defs><style></style><g clip-path="url(#cp1)"><g clip-path="url(#cp2)"><path  d="m21.3 0h-5v20.4c0 2.5-2 4.5-4.4 4.5-2.4 0-4.3-2-4.3-4.5 0-2.4 1.9-4.3 4.2-4.4v-5.1c-5.2 0.1-9.3 4.3-9.3 9.5 0 5.3 4.2 9.6 9.5 9.6 5.2 0 9.4-4.3 9.4-9.6v-10.4c1.9 1.3 4.3 2.2 6.7 2.2v-5.1c-3.8-0.1-6.8-3.3-6.8-7.1z"/></g></g></svg>