<?xml version="1.0" encoding="UTF-8"?>
<svg xmlns="http://www.w3.org/2000/svg" xmlns:xlink="http://www.w3.org/1999/xlink" width="30px" height="30px" viewBox="0 0 30 29" version="1.1">
<g id="surface1">
<path style=" stroke:none;fill-rule:nonzero;fill:rgb(0%,0%,0%);fill-opacity:1;" d="M 10.421875 5.6875 C 8.496094 5.769531 6.816406 5.878906 5.828125 5.992188 C 3.214844 6.296875 2.105469 7.035156 1.601562 8.796875 C 1.03125 10.828125 0.988281 18.570312 1.535156 21.054688 C 1.910156 22.746094 2.851562 23.601562 4.703125 23.96875 C 8.324219 24.671875 20.261719 24.710938 24.710938 24.035156 C 27.296875 23.636719 28.125 22.65625 28.472656 19.566406 C 28.792969 16.683594 28.730469 11.992188 28.335938 9.570312 C 27.964844 7.324219 26.976562 6.410156 24.527344 6.058594 C 21.976562 5.695312 14.777344 5.503906 10.421875 5.6875 Z M 15.746094 13.078125 C 18.570312 14.65625 19.230469 15.046875 19.152344 15.117188 C 19.0625 15.203125 12.21875 19.070312 12.164062 19.070312 C 12.140625 19.070312 12.128906 17.273438 12.128906 15.074219 C 12.128906 12.875 12.15625 11.089844 12.183594 11.105469 C 12.21875 11.113281 13.820312 12.003906 15.746094 13.078125 Z M 15.746094 13.078125 "/>
</g>
</svg>
